<svg xmlns="http://www.w3.org/2000/svg" viewBox="0 0 16 16" fill="none" shape-rendering="crispEdges"><metadata xmlns:rdf="http://www.w3.org/1999/02/22-rdf-syntax-ns#" xmlns:xsi="http://www.w3.org/2001/XMLSchema-instance" xmlns:dc="http://purl.org/dc/elements/1.1/" xmlns:dcterms="http://purl.org/dc/terms/"><rdf:RDF><rdf:Description><dc:title>Pixel Art</dc:title><dc:creator>DiceBear</dc:creator><dc:source xsi:type="dcterms:URI">https://www.figma.com/community/file/1198754108850888330</dc:source><dcterms:license xsi:type="dcterms:URI">https://creativecommons.org/publicdomain/zero/1.0/</dcterms:license><dc:rights>„Pixel Art” (https://www.figma.com/community/file/1198754108850888330) by „DiceBear”, licensed under „CC0 1.0” (https://creativecommons.org/publicdomain/zero/1.0/)</dc:rights></rdf:Description></rdf:RDF></metadata><mask id="viewboxMask"><rect width="16" height="16" rx="0" ry="0" x="0" y="0" fill="#fff" /></mask><g mask="url(#viewboxMask)"><path d="M4 2h8v1h1v3h1v2h-1v3h-1v1H9v1h4v1h1v2H2v-2h1v-1h4v-1H4v-1H3V8H2V6h1V3h1V2Z" fill="#b47c5a"/><path d="M4 2h8v1h1v3h1v2h-1v3h-1v1H4v-1H3V8H2V6h1V3h1V2Z" fill="#fff" fill-opacity=".1"/><path d="M10 13h3v1h1v2H2v-2h1v-1h3v1h4v-1Z" fill="#f4f6fb"/><path fill="#fff" fill-opacity=".2" d="M4 13h1v3H4zM11 13h1v3h-1z"/><path d="M6 5H5v2h2V6H6V5ZM11 5h-1v2h2V6h-1V5Z" fill="#fff"/><path fill="#2b2b3a" d="M5 6h1v1H5zM10 6h1v1h-1z"/><mask id="beardVariant01-a" style="mask-type:luminance" maskUnits="userSpaceOnUse" x="3" y="8" width="10" height="4"><path opacity=".9" d="M3 8h2v1h1v1h4V9h1V8h2v3h-1v1H4v-1H3V8Z" fill="#1b120d"/></mask><g mask="url(#beardVariant01-a)"><path fill="#1b120d" d="M0 0h16v16H0z"/><path fill="#fff" fill-opacity=".3" d="M0 0h16v16H0z"/></g><path d="M7 9v2h2v-1H8V9H7Z" fill="#b0565a"/><path d="M9 11v-1H8V9H7v1h1v1h1Z" fill="#fff" fill-opacity=".2"/><path d="M12 2H4v1h8zM13 3h-2v1h2zM13 4h-1v1h1zM6 3H3v1h3zM5 4H3v1h2zM4 5H3v1h1z" fill="#1b120d"/></g></svg>