<svg xmlns="http://www.w3.org/2000/svg" viewBox="0 0 100 100"><defs>
  <mask id="kf-ring" maskUnits="userSpaceOnUse" x="0" y="0" width="100" height="100">
    <rect width="100" height="100" fill="#fff"/>
    <polygon points="50,51 58.36,-28.56 65.38,-27.51 72.27,-25.84 79.00,-23.56 85.49,-20.70 91.70,-17.27 97.59,-13.31 103.10,-8.84 108.19,-3.90 112.83,1.47 116.97,7.23 120.58,13.34 123.64,19.74 126.12,26.39 128.00,33.23 129.27,40.21 129.91,47.28 129.93,54.37 129.32,61.44 128.08,68.43 126.23,75.28 123.78,81.94 120.74,88.35 117.16,94.47 113.04,100.25" fill="#000"/>
  </mask>
  <mask id="kf-k" maskUnits="userSpaceOnUse" x="0" y="0" width="100" height="100">
    <rect width="100" height="100" fill="#fff"/>
    <path fill="none" stroke="#000" stroke-width="56" stroke-linejoin="round" transform="translate(53.137 79.000) scale(0.04457 -0.04457)" d="M268.7828369140625 700V0H118.7864990234375V700ZM495.7828369140625 366.0711669921875V323.9288330078125H265.7828369140625V366.0711669921875ZM544.85400390625 700V656.857666015625H265.7828369140625V700ZM495.7828369140625 325.9288330078125V229.572998046875H485.7828369140625V238.5018310546875Q485.7828369140625 274.89398193359375 461.7654113769531 299.10784912109375Q437.74798583984375 323.32171630859375 401.3558349609375 323.9288330078125V325.9288330078125ZM495.7828369140625 460.427001953125V364.0711669921875H401.3558349609375V366.0711669921875Q437.74798583984375 367.0711669921875 462.0689697265625 391.5885925292969Q486.38995361328125 416.10601806640625 485.7828369140625 452.4981689453125V460.427001953125ZM544.85400390625 659.857666015625V548.5381469726562H534.85400390625V559.288330078125Q534.85400390625 603.572998046875 508.5152282714844 630.21533203125Q482.17645263671875 656.857666015625 437.28466796875 657.4647827148438V659.857666015625ZM544.85400390625 718V689L422.85400390625 700Q444.85400390625 700 469.35400390625 703.0Q493.85400390625 706 514.85400390625 710.0Q535.85400390625 714 544.85400390625 718ZM121.7864990234375 73V0H41.7864990234375V10Q41.7864990234375 10 48.2864990234375 10.0Q54.7864990234375 10 54.7864990234375 10Q80.7864990234375 10 99.2864990234375 28.5Q117.7864990234375 47 118.7864990234375 73ZM121.7864990234375 627H118.7864990234375Q118.17938232421875 653 99.35962009429932 671.5Q80.53985786437988 690 54.7864990234375 690Q54.7864990234375 690 48.482940673828125 690.0Q42.17938232421875 690 42.17938232421875 690L41.7864990234375 700H121.7864990234375ZM265.7828369140625 73H268.7828369140625Q269.7828369140625 47 288.2828369140625 28.5Q306.7828369140625 10 332.7828369140625 10Q332.7828369140625 10 338.7828369140625 10.0Q344.7828369140625 10 345.7828369140625 10V0H265.7828369140625Z"/>
    <rect x="62" y="62" width="38" height="20" fill="#000"/>
  </mask>
</defs>
<path d="M50 6a45 45 0 1 0 0.001 0z M53.6 9.2a41.6 41.6 0 1 0 0.001 0z" fill="#3B3FD8" fill-rule="evenodd" mask="url(#kf-ring)"/>
<g fill="#3B3FD8" mask="url(#kf-k)"><path transform="translate(18.373 71.000) scale(0.06286 -0.06286)" d="M412.851806640625 430.53375244140625 674.99560546875 72.24908447265625Q697.8169555664062 41.9281005859375 722.0489807128906 26.46405029296875Q746.281005859375 11 777.281005859375 10V0H694.8184204101562Q684.2113037109375 0 658.7294616699219 1.196441650390625Q633.2476196289062 2.39288330078125 601.1230773925781 9.410675048828125Q568.99853515625 16.428466796875 536.5704345703125 33.696075439453125Q504.142333984375 50.96368408203125 479.85693359375 83.10601806640625Q475 89.7843017578125 460.2320251464844 109.87362670898438Q445.46405029296875 129.96295166015625 425.24945068359375 157.80245971679688Q405.03485107421875 185.6419677734375 383.3380432128906 215.55300903320312Q361.6412353515625 245.46405029296875 343.04561360677087 271.22924296061194Q324.4499918619792 296.9944356282552 312.61641438802087 313.3904673258463Q300.7828369140625 329.7864990234375 300.7828369140625 329.7864990234375ZM663.6034545898438 693 362.7821044921875 335.857666015625 300.7828369140625 329.7864990234375 575.7828369140625 693ZM733.8176879882812 700V690.8438842773437H729.8176879882812Q696.8176879882812 690.8438842773437 668.3176879882812 677.6183837890625Q639.8176879882812 664.3928833007812 619.8176879882812 642L538.6041870117188 644Q550.9970703125 661 543.1041870117188 676.0Q535.2113037109375 691 514.8065592447916 691H504.60418701171875V700H729.8176879882812ZM268.7828369140625 700V0H118.7864990234375V700ZM121.7864990234375 73V0H41.7864990234375V10Q43.000732421875 10 48.590057373046875 10.0Q54.17938232421875 10 54.7864990234375 10Q80.7864990234375 10 99.2864990234375 28.5Q117.7864990234375 47 118.7864990234375 73ZM121.7864990234375 627H118.7864990234375Q117.7864990234375 653 99.2864990234375 671.5Q80.7864990234375 690 54.7864990234375 690Q54.17938232421875 690 48.590057373046875 690.0Q43.000732421875 690 41.7864990234375 690V700H121.7864990234375ZM265.7828369140625 73H268.7828369140625Q269.7828369140625 47 288.2828369140625 28.5Q306.7828369140625 10 332.7828369140625 10Q333.9970703125 10 339.43665489783655 10.0Q344.8762394831731 10 345.7828369140625 10V0H265.7828369140625ZM265.7828369140625 627V700H345.7828369140625V690Q344.7828369140625 690 339.38995361328125 690.0Q333.9970703125 690 332.7828369140625 690Q306.7828369140625 690 288.2828369140625 671.5Q269.7828369140625 653 268.7828369140625 627Z"/></g>
<g fill="#3B3FD8"><path transform="translate(53.137 79.000) scale(0.04457 -0.04457)" d="M268.7828369140625 700V0H118.7864990234375V700ZM495.7828369140625 366.0711669921875V323.9288330078125H265.7828369140625V366.0711669921875ZM544.85400390625 700V656.857666015625H265.7828369140625V700ZM495.7828369140625 325.9288330078125V229.572998046875H485.7828369140625V238.5018310546875Q485.7828369140625 274.89398193359375 461.7654113769531 299.10784912109375Q437.74798583984375 323.32171630859375 401.3558349609375 323.9288330078125V325.9288330078125ZM495.7828369140625 460.427001953125V364.0711669921875H401.3558349609375V366.0711669921875Q437.74798583984375 367.0711669921875 462.0689697265625 391.5885925292969Q486.38995361328125 416.10601806640625 485.7828369140625 452.4981689453125V460.427001953125ZM544.85400390625 659.857666015625V548.5381469726562H534.85400390625V559.288330078125Q534.85400390625 603.572998046875 508.5152282714844 630.21533203125Q482.17645263671875 656.857666015625 437.28466796875 657.4647827148438V659.857666015625ZM544.85400390625 718V689L422.85400390625 700Q444.85400390625 700 469.35400390625 703.0Q493.85400390625 706 514.85400390625 710.0Q535.85400390625 714 544.85400390625 718ZM121.7864990234375 73V0H41.7864990234375V10Q41.7864990234375 10 48.2864990234375 10.0Q54.7864990234375 10 54.7864990234375 10Q80.7864990234375 10 99.2864990234375 28.5Q117.7864990234375 47 118.7864990234375 73ZM121.7864990234375 627H118.7864990234375Q118.17938232421875 653 99.35962009429932 671.5Q80.53985786437988 690 54.7864990234375 690Q54.7864990234375 690 48.482940673828125 690.0Q42.17938232421875 690 42.17938232421875 690L41.7864990234375 700H121.7864990234375ZM265.7828369140625 73H268.7828369140625Q269.7828369140625 47 288.2828369140625 28.5Q306.7828369140625 10 332.7828369140625 10Q332.7828369140625 10 338.7828369140625 10.0Q344.7828369140625 10 345.7828369140625 10V0H265.7828369140625Z"/></g>
<g fill="#C98A00">
  <path d="M60.5 19.5 L77 12.5 L92.5 18.8 L76 26 Z"/>
  <path d="M66.5 23.6 L66.8 29.6 Q76 34.2 85.6 28.4 L85.4 22.4 L76 26.6 Z"/>
  <path d="M90.6 19.6 L91.4 19.3 L91.4 29.8 L90.6 29.8 Z"/>
  <path d="M89.6 29.4 L92.4 29.4 L93 35.2 L89 35.2 Z"/>
</g></svg>
